<?xml version="1.0" encoding="utf-8"?>
<!-- Generator: Adobe Illustrator 18.0.0, SVG Export Plug-In . SVG Version: 6.00 Build 0)  -->
<!DOCTYPE svg PUBLIC "-//W3C//DTD SVG 1.1//EN" "http://www.w3.org/Graphics/SVG/1.1/DTD/svg11.dtd">
<svg version="1.1" id="Layer_1" xmlns="http://www.w3.org/2000/svg" xmlns:xlink="http://www.w3.org/1999/xlink" x="0px" y="0px"
	 viewBox="0 0 790 640" enable-background="new 0 0 790 640" xml:space="preserve">
<circle id="ring" fill="none" stroke="#DC241F" stroke-width="114" cx="395" cy="320" r="263.4"/>
<path id="bar" fill="none" stroke="#DC241F" stroke-width="130" d="M0,320h790"/>
<g>
	<path id="B" fill="#FFFFFF" d="M284,352c4.1-1.1,6.6-2.5,9.3-5c2.5-2.4,3.8-4.3,4.8-7.4c3.3-9.5-1.2-20.2-9.6-23.1
		c-0.9-0.3-1.9-0.7-2.2-0.8c-0.3-0.1,0.3-0.8,1.6-1.6c2.6-1.7,4.6-4.5,5.5-7.3c0.8-2.9,0.5-8.3-0.6-11.4c-1.2-3.1-4.4-6.3-7.8-7.9
		c-4.5-2-7-2.3-20.4-2.3h-12.1v34v34l14.3-0.2C279.8,352.9,281.3,352.8,284,352L284,352z M266.3,332.2v-9.1h5.5
		c3.6,0,6.1,0.2,7.3,0.5c3.7,1.1,5.8,3.7,6.2,7.6c0.5,3.9-1.3,7-4.8,8.6c-2,0.9-2.7,1-8.2,1.2l-6,0.2V332.2z M266.3,304.2v-7.1
		l4.3,0c4.7,0,6.6,0.5,8.2,2.3c2.5,2.8,2.1,8.1-0.9,10.2c-1.8,1.3-3.5,1.6-7.6,1.6h-4V304.2z"/>
	<path id="U" fill="#FFFFFF" d="M349.9,353.1c5.1-1.5,8.6-3.6,12.7-7.7c3.1-3.1,3.9-4.2,5.5-7.3c3.1-6.2,3-6,3.2-31l0.1-22h-6.7H358
		l0,18.9c0,23.2-0.2,25.2-3.4,30.2c-2.6,4.1-6.9,6.5-12.3,6.8c-5.2,0.4-10-1.5-13.2-5c-1.9-2.1-2.5-3.2-3.7-6.3
		c-0.8-2.1-0.8-2.8-0.9-23.3l-0.1-21.2h-6.7h-6.7v21.3c0,22.9,0.1,24.3,2.1,29.5c1.4,3.6,3.4,6.6,6.5,9.7c4.2,4.2,8.9,6.7,15.2,8
		C338.2,354.5,346.2,354.2,349.9,353.1L349.9,353.1z"/>
	<g id="S1">
		<path id="S" fill="#FFFFFF" d="M409.3,353.6c9.9-2,15.8-8.9,16.4-19.1c0.4-7.1-1.8-13-6.4-17.3c-2.4-2.2-3.8-3-10.4-6.3
			c-4.2-2.1-8.4-4.3-9.3-4.9c-5.2-3.8-2.6-10.1,4.1-10.1c1.1,0,2.5,0.2,3.2,0.5c1.4,0.6,3.5,2.6,4.4,4.2c0.3,0.6,0.8,1,1,1
			c0.3-0.1,2.8-1.4,5.7-3c6-3.2,5.8-2.9,3.5-6.4c-7.6-11.9-29.9-11.1-36,1.4c-3.9,7.9-1.6,17.2,5.6,22.5c1.1,0.8,5,3.1,8.7,5
			c3.7,1.9,7.6,4.2,8.7,5c4.4,3.3,5.2,8.8,1.9,12.5c-1.7,1.9-3.8,2.8-6.7,2.8c-4.5,0-7.9-1.9-10.5-6l-1.6-2.4l-2.3,1.3
			c-7.1,3.9-9,5.1-9,5.6c0,1,3.5,5.8,5.7,7.7c2.7,2.4,8.2,5.2,11.6,5.9C400.8,354.4,405.7,354.4,409.3,353.6L409.3,353.6z"/>
	</g>
	<path id="E" fill="#FFFFFF" d="M481.5,346.8v-6.3h-15.5h-15.5v-8.6v-8.6h11.7h11.7V317v-6.1h-11.7h-11.7V304v-6.9h14.2h14.2v-5.9
		v-5.9h-21.1h-21.1v33.9v33.9H459h22.4L481.5,346.8z"/>
	<g id="S2">
		<path id="S_1_" fill="#FFFFFF" d="M517.5,353.6c9.9-2,15.8-8.9,16.4-19.1c0.4-7.1-1.8-13-6.4-17.3c-2.4-2.2-3.8-3-10.4-6.3
			c-4.2-2.1-8.4-4.3-9.3-4.9c-5.2-3.8-2.6-10.1,4.1-10.1c1.1,0,2.5,0.2,3.2,0.5c1.4,0.6,3.5,2.6,4.4,4.2c0.3,0.6,0.8,1,1,1
			c0.3-0.1,2.8-1.4,5.7-3c6-3.2,5.8-2.9,3.5-6.4c-7.6-11.9-29.9-11.1-36,1.4c-3.9,7.9-1.6,17.2,5.6,22.5c1.1,0.8,5,3.1,8.7,5
			c3.7,1.9,7.6,4.2,8.7,5c4.4,3.3,5.2,8.8,1.9,12.5c-1.7,1.9-3.8,2.8-6.7,2.8c-4.5,0-7.9-1.9-10.5-6l-1.6-2.4l-2.3,1.3
			c-7.1,3.9-9,5.1-9,5.6c0,1,3.5,5.8,5.7,7.7c2.7,2.4,8.2,5.2,11.6,5.9C509,354.4,513.9,354.4,517.5,353.6L517.5,353.6z"/>
	</g>
</g>
</svg>
